<?xml version="1.0" encoding="UTF-8"?>
<svg width="48" height="48" version="1.1" viewBox="0 0 48 48" xmlns="http://www.w3.org/2000/svg" xmlns:cc="http://creativecommons.org/ns#" xmlns:dc="http://purl.org/dc/elements/1.1/" xmlns:rdf="http://www.w3.org/1999/02/22-rdf-syntax-ns#">
 <metadata>
  <rdf:RDF>
   <cc:Work rdf:about="">
    <dc:format>image/svg+xml</dc:format>
    <dc:type rdf:resource="http://purl.org/dc/dcmitype/StillImage"/>
    <dc:title/>
   </cc:Work>
  </rdf:RDF>
 </metadata>
 <path d="m18.462 6.2272s-5.0908-0.1135-10.442 3.9007c0 0-5.3495 9.6975-5.3495 21.662 0 0 3.1196 5.3862 11.332 5.6466 0 0 1.3787-1.6691 2.492-3.0812-4.7186-1.4121-6.5028-4.3831-6.5028-4.3831s0.37054 0.26038 1.0382 0.63092c0.03672 0.03672 0.07344 0.07344 0.14855 0.11016 0.11183 0.07511 0.22366 0.11183 0.33549 0.18694 0.92969 0.52076 1.8577 0.92969 2.7123 1.2635 1.5239 0.5942 3.3382 1.1901 5.4596 1.599 2.7874 0.52076 6.0555 0.7027 9.6224 0.0334 1.7459-0.2971 3.5302-0.81786 5.3879-1.599 1.3002-0.48238 2.749-1.1884 4.2729-2.1915 0 0-1.856 3.0461-6.7265 4.4215 1.115 1.4121 2.4502 3.0094 2.4502 3.0094 8.2204-0.26539 11.375-5.6466 11.375-5.6466 0-11.964-5.3495-21.662-5.3495-21.662-5.3512-4.0125-10.442-3.9007-10.442-3.9007l-0.51743 0.5942c6.3159 1.9328 9.2502 4.7186 9.2502 4.7186-3.864-2.1181-7.6529-3.1563-11.183-3.5652-2.6756-0.2971-5.241-0.22533-7.5076 0.071768-0.22366 0-0.40893 0.038395-0.63092 0.076778-1.3002 0.11183-4.4565 0.5942-8.429 2.3401-1.3753 0.63092-2.1915 1.0766-2.1915 1.0766s3.0828-2.9343 9.771-4.8671l-0.37388-0.44565m-1.0382 13.859c2.1181 0 3.8273 1.8577 3.7905 4.1244 0 2.2667-1.6691 4.1244-3.7905 4.1244-2.0814 0-3.7905-1.8577-3.7905-4.1244 0-2.2666 1.6691-4.1244 3.7905-4.1244m13.561 0c2.1181 0 3.7905 1.8577 3.7905 4.1244 0 2.2667-1.6691 4.1244-3.7905 4.1244-2.0814 0-3.7905-1.8577-3.7905-4.1244 0-2.2666 1.6691-4.1244 3.7905-4.1244" fill="#fff" stroke-width=".10694"/>
</svg>
