<?xml version="1.0" encoding="UTF-8"?>
<svg width="48" height="48" version="1.1" viewBox="0 0 48 48" xmlns="http://www.w3.org/2000/svg" xmlns:cc="http://creativecommons.org/ns#" xmlns:dc="http://purl.org/dc/elements/1.1/" xmlns:rdf="http://www.w3.org/1999/02/22-rdf-syntax-ns#">
 <metadata>
  <rdf:RDF>
   <cc:Work rdf:about="">
    <dc:format>image/svg+xml</dc:format>
    <dc:type rdf:resource="http://purl.org/dc/dcmitype/StillImage"/>
    <dc:title/>
   </cc:Work>
  </rdf:RDF>
 </metadata>
 <path d="m15.142 11.636 0.229 0.9478 0.18261 1.0672c0.11545 0.60537 0.20871 1.2334 0.27587 1.8602 0.11035 1.0307 0.14986 2.0585 0.10121 2.9782-0.01993 0.35287-0.03832 0.68724-0.03857 0.71904-0.19601 1.1098-0.53275 2.2793-1.3252 3.0276-0.84505 0.7449-2.0128 1.0425-2.9269 1.1379l-0.08626-0.02552c0.01591-0.87068-0.17679-1.7845-0.60382-2.6377-1.1748-2.3465-3.661-3.3448-5.5547-2.2315-1.8937 1.1132-2.4772 3.9179-1.3023 6.2649 1.0679 2.1329 3.2202 3.1496 5.025 2.4816l-0.020289 0.03845c1.2468 1.5939 2.9299 3.047 4.3285 4.1647 1.5567 1.2396 3.1911 2.3504 4.7841 3.1264 2.2202 1.051 4.631 1.8545 6.8024 2.2639 2.0933-0.0054 3.7206-0.18035 5.205-0.63503 1.5234-0.46654 2.8962-1.2277 4.4676-2.4024 1.4944-1.4759 2.5921-2.8584 3.5073-4.3491 1.5099-2.6648 2.3569-4.8167 3.0777-7.3354 0.63693-2.246 1.06-3.9808 1.3944-5.9998 0.38467-2.0615 0.41849-4.3651 0.93226-6.2682-1.8823 1.8719-2.0097 2.3849-4.2207 4.5828-1.2938 1.2794-2.6501 2.3334-4.3684 2.8462-0.38467-0.7309-0.95041-1.1112-1.5449-1.5749-1.1616-0.91125-2.6282-1.5803-3.9322-1.9308-1.2062-0.31075-2.4472-0.43427-3.5458-0.42406-1.4066 0.05945-2.6976 0.22164-3.9452 0.6679-0.74656 0.27267-1.4821 0.60917-2.2698 0.94222l-1.9466-1.4178-1.3399-0.94282-1.3427-0.94246" fill="#fff" stroke-width=".097075"/>
</svg>
