<?xml version="1.0" encoding="UTF-8"?>
<svg width="48" height="48" version="1.1" viewBox="0 0 48 48" xmlns="http://www.w3.org/2000/svg" xmlns:cc="http://creativecommons.org/ns#" xmlns:dc="http://purl.org/dc/elements/1.1/" xmlns:rdf="http://www.w3.org/1999/02/22-rdf-syntax-ns#">
 <metadata>
  <rdf:RDF>
   <cc:Work rdf:about="">
    <dc:format>image/svg+xml</dc:format>
    <dc:type rdf:resource="http://purl.org/dc/dcmitype/StillImage"/>
    <dc:title/>
   </cc:Work>
  </rdf:RDF>
 </metadata>
 <path d="m23.726 2.9243c-1.3108 0-2.6035 0.47272-3.5345 1.4227l-15.652 16.036c-5.9277 5.924 3.8371 5.4318 7.3716 7.6756 1.6342 1.0631-5.2438 2.4277-3.8371 3.8344 1.3672 1.406 8.2427 2.6999 9.6099 4.0669 1.3672 1.406-2.7723 2.887-1.4051 4.2928 1.33 1.4044 4.5228 0.07511 5.0939 3.2654 0.41725 2.3563 5.8468 1.1815 8.2789-0.83312 1.52-1.2913-2.6172-1.2945-1.2497-2.7015 3.4214-3.4559 6.4597-1.5556 7.7138-4.7484 0.68291-1.7088-5.1712-2.9228-3.6151-4.0239 3.7239-2.6215 17.403-3.9544 11.094-10.26l-16.226-16.604c-1.0056-0.94981-2.3323-1.4227-3.6433-1.4227m0.05997 2.0088c0.85944 0.00711 1.7191 0.33164 2.3441 0.95689l5.6837 5.7864c0.52302 0.52302 0.52206 1.6067 0.20828 1.9206l-2.8242-2.3017-0.55778 3.382-2.3336-1.2532-3.8021 2.4006-1.2568-5.0516-2.0228 4.3919-5.0517-0.03529c-0.97625 0-0.8379-1.0122 0.17298-2.0228 1.9871-2.196 5.8581-5.9259 7.079-7.2164 0.58818-0.60468 1.3841-0.91996 2.1919-0.95322 0.05725-0.00198 0.11219-0.00408 0.1693-0.00338m-7.3572 23.996c0.34159 0 11.702 1.52 7.3324 2.6965-1.6717 0.45446-9.3454-2.6965-7.3324-2.6965m25.224 5.7933c-1.3808 6.76e-4 -2.8122 0.71194-3.7457 2.7254 2.6556 1.4788 6.0869 1.6893 7.7138-0.2718-0.28202-1.1262-2.076-2.4549-3.968-2.4536m-30.007 3.3891c-0.88452 0.02988-2.6661 0.36586-2.9266 1.2427-0.42338 1.7238 2.8639 2.2356 3.9291 0.12023 0.34854-0.63739 0.31379-0.485 0.38835-0.75202-0.25899-0.27917-0.56978-0.55315-1.0733-0.60372-0.08261-0.0075-0.19138-0.0112-0.31774-0.0071m21.305 3.0401c-0.13304 0.0014-0.28271 0.01225-0.45187 0.03529-0.59214-2e-3 -0.925 0.79769-0.925 0.79769-0.11232 0.50108-0.20842 1.1072 0.12022 1.7052 0.43878 0.77983 1.4443 1.1408 2.7854 0.70608 0.7861-0.92773 0.69464-1.2816-0.0105-2.1747-0.461-0.58368-0.58723-1.0788-1.5184-1.0698" fill="#fff" stroke-width=".10953"/>
</svg>
