<?xml version="1.0" encoding="UTF-8"?>
<svg width="48" height="48" version="1.1" viewBox="0 0 48 48" xmlns="http://www.w3.org/2000/svg" xmlns:cc="http://creativecommons.org/ns#" xmlns:dc="http://purl.org/dc/elements/1.1/" xmlns:rdf="http://www.w3.org/1999/02/22-rdf-syntax-ns#">
 <metadata>
  <rdf:RDF>
   <cc:Work rdf:about="">
    <dc:format>image/svg+xml</dc:format>
    <dc:type rdf:resource="http://purl.org/dc/dcmitype/StillImage"/>
    <dc:title/>
   </cc:Work>
  </rdf:RDF>
 </metadata>
 <path d="m23.98 4.1259c-8.7739 0-16.241 5.5902-19.036 13.404-0.029219 0.62913-0.030343 1.2658-0.00289 1.9131 0.35592 8.3659 7.1783 16.762 16.477 15.756 5.3122-0.57508 9.5598-5.6264 6.8478-9.9373-0.86177-1.3695-2.9546-1.4875-3.9387-0.83097 4.7286-0.1334 2.4201 5.4996-1.7341 6.3598-5.6761 1.1744-10.033-4.3097-10.426-9.413-0.73477-9.5367 8.4876-16.291 17.308-16.26 0.27781 8.263e-4 0.55406 0.00876 0.82805 0.020245-1.989-0.65442-4.1142-1.01-6.3223-1.01m4.8098 9.8081c-0.27198-0.0033-0.55406 0.0041-0.83109 0.01735-0.28545 0.01347-0.57799 0.04066-0.8685 0.07214-5.3121 0.57507-9.5597 5.6264-6.8476 9.9382 0.86154 1.3696 2.9546 1.4876 3.9386 0.83109-4.7286 0.13351-2.4202-5.4995 1.7341-6.3598 5.6761-1.1744 10.033 4.31 10.426 9.413 0.71645 9.2993-8.038 15.953-16.652 16.249 1.3828 0.29894 2.8184 0.45886 4.2908 0.45886 9.4046 0 17.309-6.4248 19.567-15.123-0.49393-7.7343-6.4554-15.389-14.757-15.495" fill="#fff" stroke-width=".11238"/>
</svg>
