<?xml version="1.0" encoding="UTF-8"?>
<svg width="48" height="48" version="1.1" viewBox="0 0 48 48" xmlns="http://www.w3.org/2000/svg" xmlns:cc="http://creativecommons.org/ns#" xmlns:dc="http://purl.org/dc/elements/1.1/" xmlns:rdf="http://www.w3.org/1999/02/22-rdf-syntax-ns#">
 <metadata>
  <rdf:RDF>
   <cc:Work rdf:about="">
    <dc:format>image/svg+xml</dc:format>
    <dc:type rdf:resource="http://purl.org/dc/dcmitype/StillImage"/>
    <dc:title/>
   </cc:Work>
  </rdf:RDF>
 </metadata>
 <path d="m12.747 33.608c3.1649 2.5225 7.207 4.2888 10.843 4.2888 4.1081 0 6.128-1.514 6.128-3.9732 0-2.5863-2.4914-3.4054-6.3307-4.919l-5.7243-2.2709c-4.5128-1.7027-8.8232-5.2344-8.8232-11.226 0-6.811 6.4659-12.234 15.626-12.234 5.0505 0 10.373 1.892 14.144 5.4242l-5.052 5.8647c-2.8955-2.0812-5.5904-3.2798-9.0919-3.2798-3.4347 0-5.5904 1.3874-5.5904 3.7204 0 2.5225 2.8955 3.4054 6.6685 4.8558l5.6575 2.1444c5.3206 2.0181 8.6881 5.361 8.6881 11.162 0 6.8115-6.0618 12.738-16.569 12.738-5.7241 0-11.785-2.0176-16.23-5.9281l5.6575-6.3691" fill="#fff" stroke-width=".12035"/>
</svg>
